Coordinates
version=1
nRows=20
nColumns=33
inDegrees=yes

Units are S.I. units (second, meters, Newtons, ...)
Angles are in degrees.

endheader
time	ground_thorax_rot_x	ground_thorax_rot_y	ground_thorax_rot_z	ground_thorax_tx	ground_thorax_ty	ground_thorax_tz	clav_prot_r	clav_elev_r	scapula_abduction_r	scapula_elevation_r	scapula_upward_rot_r	scapula_winging_r	shoulder_elv_r	plane_of_elev_r	axial_rot_r	elbow_flexion_r	pro_sup_r	wrist_flex_r	wrist_dev_r	clav_prot_l	clav_elev_l	scapula_abduction_l	scapula_elevation_l	scapula_upward_rot_l	scapula_winging_l	shoulder_elv_l	plane_of_elev_l	axial_rot_l	elbow_flexion_l	pro_sup_l	wrist_flex_l	wrist_dev_l	
7.0300	-2.391264	0.972587	12.486604	-0.113783	1.024782	0.009287	13.699015	-10.860879	31.588955	-8.938879	14.369651	-9.198592	-14.474101	-60.805748	116.807181	-63.973720	-160.938339	9.053200	3.887879	17.753285	-8.933067	-25.454725	-9.501550	-27.805903	5.795877	59.928649	-6.466896	13.519250	36.523180	20.470073	15.478279	-13.072535	
7.0400	-2.384732	0.938107	12.611822	-0.114296	1.024976	0.009082	13.506961	-10.960853	30.913726	-8.839148	13.786668	-8.880341	-15.172106	-61.289969	116.428871	-65.120303	-161.450607	9.559644	3.343707	17.475543	-8.713315	-24.997891	-9.873965	-28.148046	5.555358	59.966099	-7.183381	13.317993	38.174372	19.933524	15.685915	-13.144413	
7.0500	-2.380867	0.906875	12.737282	-0.114807	1.025190	0.008882	13.307845	-11.065063	30.224228	-8.738342	13.195360	-8.553367	-15.906247	-61.811000	116.035262	-66.259936	-161.946847	10.124814	2.749390	17.185862	-8.487304	-24.521232	-10.251832	-28.487098	5.304111	60.010906	-7.941611	13.075599	39.860419	19.355646	15.885772	-13.168787	
7.0600	-2.371944	0.877196	12.854134	-0.115309	1.025404	0.008697	13.103948	-11.154989	29.527626	-8.622050	12.601160	-8.230177	-16.658232	-62.359101	115.643486	-67.399663	-162.400932	10.741294	2.132044	16.889042	-8.251362	-24.032835	-10.638254	-28.822908	5.046740	60.052709	-8.721563	12.822813	41.566249	18.769016	16.048272	-13.168365	
7.0700	-2.357927	0.852569	12.965233	-0.115806	1.025626	0.008521	12.899500	-11.237257	28.825112	-8.492428	11.993849	-7.908585	-17.424684	-62.929955	115.237442	-68.523410	-162.792198	11.426137	1.477769	16.583854	-8.011640	-23.530066	-11.026431	-29.152792	4.781880	60.095568	-9.530084	12.549134	43.289614	18.187363	16.158378	-13.150027	
7.0800	-2.335000	0.829878	13.059975	-0.116291	1.025843	0.008367	12.693374	-11.297983	28.122225	-8.341346	11.385364	-7.597502	-18.198609	-63.512852	114.828062	-69.633781	-163.103906	12.174031	0.800865	16.272680	-7.764354	-23.016741	-11.417689	-29.472414	4.512402	60.133771	-10.352615	12.279802	45.012629	17.628152	16.206319	-13.127986	
7.0900	-2.313566	0.811906	13.150272	-0.116762	1.026092	0.008225	12.483728	-11.373209	27.406189	-8.195096	10.760264	-7.273541	-19.003416	-64.115624	114.372362	-70.706945	-163.348891	13.021347	0.050104	15.947111	-7.518876	-22.477150	-11.801203	-29.776064	4.230149	60.183012	-11.221638	11.969528	46.741210	17.080380	16.199674	-13.101049	
7.1000	-2.283551	0.792905	13.237580	-0.117213	1.026337	0.008102	12.267532	-11.426865	26.686689	-8.030288	10.142624	-6.958329	-19.829004	-64.733126	113.908190	-71.737229	-163.510302	13.934742	-0.728431	15.612878	-7.261239	-21.921870	-12.192469	-30.069916	3.941498	60.215939	-12.104300	11.664127	48.450745	16.566116	16.134168	-13.094572	
7.1100	-2.255828	0.777490	13.324956	-0.117642	1.026614	0.007991	12.044042	-11.494428	25.953980	-7.873303	9.518416	-6.630022	-20.703321	-65.369810	113.386672	-72.704842	-163.590659	14.970081	-1.597006	15.260686	-7.003068	-21.332972	-12.575660	-30.342192	3.637948	60.253946	-13.032731	11.316624	50.146352	16.065103	16.008407	-13.099817	
7.1200	-2.222013	0.759696	13.411600	-0.118050	1.026883	0.007898	11.812471	-11.536450	25.221327	-7.698120	8.912768	-6.313265	-21.611102	-66.018436	112.855730	-73.613387	-163.593725	16.064939	-2.490823	14.900114	-6.730262	-20.727941	-12.968698	-30.603956	3.327825	60.272418	-13.969506	10.978398	51.803608	15.590764	15.836207	-13.139969	
7.1300	-2.188880	0.743858	13.489313	-0.118429	1.027177	0.007825	11.573001	-11.579396	24.483932	-7.525181	8.317103	-5.993041	-22.575060	-66.671937	112.265510	-74.450293	-163.501936	17.279666	-3.468315	14.523098	-6.454891	-20.090621	-13.353663	-30.840118	3.004548	60.293722	-14.936704	10.613541	53.418699	15.132595	15.602238	-13.216375	
7.1400	-2.143066	0.722118	13.566795	-0.118797	1.027430	0.007779	11.332250	-11.565017	23.764356	-7.310364	7.752048	-5.707879	-23.557787	-67.316028	111.691112	-75.223632	-163.315511	18.506928	-4.421910	14.147563	-6.159340	-19.454187	-13.758567	-31.077054	2.682610	60.284301	-15.887027	10.287949	54.969798	14.722846	15.322357	-13.360991	
7.1500	-2.098878	0.703773	13.632403	-0.119143	1.027704	0.007763	11.091648	-11.547523	23.051927	-7.094055	7.196030	-5.426451	-24.597526	-67.944793	111.045078	-75.920198	-163.022634	19.839302	-5.451903	13.759996	-5.866775	-18.792268	-14.151346	-31.290989	2.350365	60.290205	-16.867616	9.925444	56.462624	14.336628	14.980239	-13.565230	
7.1600	-2.041912	0.679353	13.700133	-0.119483	1.027936	0.007767	10.853748	-11.472144	22.365972	-6.837757	6.676506	-5.183483	-25.657366	-68.558077	110.410322	-76.542480	-162.646179	21.150468	-6.441050	13.377735	-5.557336	-18.137581	-14.563977	-31.511938	2.021045	60.270056	-17.830439	9.591341	57.882489	13.997491	14.600907	-13.844956	
7.1700	-1.986155	0.655632	13.752052	-0.119791	1.028193	0.007792	10.613534	-11.391231	21.697754	-6.588909	6.194403	-4.949307	-26.805110	-69.154947	109.684016	-77.068903	-162.156330	22.559013	-7.503988	12.980720	-5.249675	-17.451594	-14.964001	-31.706232	1.680176	60.264630	-18.818930	9.211435	59.231590	13.678603	14.146214	-14.202215	
7.1800	-1.918574	0.625263	13.803178	-0.120087	1.028410	0.007838	10.377538	-11.253067	21.064657	-6.306145	5.762701	-4.755837	-27.984547	-69.727999	108.959302	-77.513058	-161.605090	23.917434	-8.510712	12.589893	-4.927540	-16.773841	-15.381127	-31.906118	1.342776	60.234457	-19.788580	8.854002	60.501524	13.399815	13.659654	-14.631906	
7.1900	-1.849161	0.595396	13.840119	-0.120350	1.028643	0.007908	10.145839	-11.100381	20.463690	-6.026278	5.376971	-4.580686	-29.257661	-70.268944	108.136404	-77.854955	-160.952554	25.344225	-9.567338	12.187974	-4.609065	-16.070943	-15.784541	-32.080848	0.996901	60.215321	-20.778113	8.450070	61.689900	13.146296	13.102064	-15.151393	
7.2000	-1.766423	0.559745	13.882534	-0.120607	1.028834	0.008001	9.926494	-10.890873	19.904038	-5.708885	5.030880	-4.447394	-30.541633	-70.771883	107.324466	-78.112451	-160.266252	26.689741	-10.544855	11.798724	-4.281725	-15.388015	-16.202544	-32.266879	0.658475	60.169585	-21.748103	8.068197	62.792867	12.940717	12.535090	-15.737721	
7.2100	-1.677780	0.523301	13.919970	-0.120842	1.029019	0.008120	9.718024	-10.656859	19.376809	-5.378775	4.713112	-4.336072	-31.852875	-71.230586	106.476219	-78.277773	-159.525925	28.030335	-11.511283	11.413026	-3.957905	-14.707840	-16.615533	-32.446606	0.321526	60.120458	-22.721142	7.670227	63.810801	12.779159	11.943548	-16.392440	
7.2200	-1.579128	0.485976	13.962736	-0.121066	1.029173	0.008266	9.523280	-10.381232	18.883165	-5.018864	4.418225	-4.255696	-33.151449	-71.639542	105.640533	-78.352099	-158.737641	29.328049	-12.424553	11.041074	-3.632120	-14.048974	-17.034336	-32.633091	-0.006611	60.055238	-23.680167	7.276516	64.736722	12.692534	11.349923	-17.132898	
